<svg width="1440" height="1024" viewBox="0 0 1440 1024" fill="none" xmlns="http://www.w3.org/2000/svg">
<rect x="-181.765" y="-21" width="1971.95" height="1110.05" fill="#FF8533"/>
<path d="M999.485 543.369C801.297 442.628 798.426 401.626 639.635 428.203C480.845 454.779 278.5 388.999 164.5 327.499C50.5 265.999 70.6887 134.666 -3 158.999C-3 266.234 1.86079e-06 1024 1.86079e-06 1024L1440 1024L1440 451.15C1440 451.15 1198.03 644.294 999.485 543.369Z" fill="url(#paint0_linear_204_131)"/>
<path d="M884.737 510.49C698.909 442.049 693.06 515.94 550.284 527.623C407.508 539.306 368.532 371.726 249.329 401.609C130.127 431.493 68.6031 283.764 -0.490331 300.295C-0.490331 373.784 -4.00005 1024 -4.00005 1024L718 1024L1440 1024L1440 446.404C1440 446.404 1070.91 579.056 884.737 510.49Z" fill="url(#paint1_linear_204_131)"/>
<defs>
<linearGradient id="paint0_linear_204_131" x1="222.73" y1="899.747" x2="1290.35" y2="548.95" gradientUnits="userSpaceOnUse">
<stop stop-color="#FF8533"/>
<stop offset="1" stop-color="#DB6E24"/>
</linearGradient>
<linearGradient id="paint1_linear_204_131" x1="91.2634" y1="831.083" x2="1333.06" y2="152.146" gradientUnits="userSpaceOnUse">
<stop stop-color="#E17D3A"/>
<stop offset="0.24897" stop-color="#D2E7F8" stop-opacity="0.24"/>
<stop offset="0.875935" stop-color="#E5EEF4"/>
</linearGradient>
</defs>
</svg>
