<svg width="148" height="70" viewBox="0 0 148 70" fill="none" xmlns="http://www.w3.org/2000/svg">
<g filter="url(#filter0_d_0_1)">
<rect x="49" y="23" width="50" height="2" fill="#FFA76B"/>
<circle cx="26.5" cy="24.5" r="21.5" stroke="white" stroke-width="2"/>
<circle cx="121.5" cy="24.5" r="21.5" stroke="white" stroke-width="2"/>
</g>
<g filter="url(#filter1_d_0_1)">
<path d="M13.6567 61.568C13.4807 61.3973 13.3927 61.232 13.3927 61.072C13.3927 60.992 13.4194 60.9173 13.4727 60.848C13.5314 60.7733 13.5927 60.7173 13.6567 60.68C13.7207 60.6373 13.7581 60.6213 13.7687 60.632C13.9287 60.8613 14.1447 61.0507 14.4167 61.2C14.6887 61.3493 14.9927 61.424 15.3287 61.424C15.6861 61.424 15.9634 61.3547 16.1607 61.216C16.3581 61.072 16.4567 60.872 16.4567 60.616C16.4567 60.4347 16.4007 60.2907 16.2887 60.184C16.1767 60.072 16.0354 59.9867 15.8647 59.928C15.6994 59.8693 15.4647 59.8053 15.1607 59.736C14.8354 59.6613 14.5581 59.5733 14.3287 59.472C14.0994 59.3707 13.9074 59.2187 13.7527 59.016C13.6034 58.8133 13.5287 58.5493 13.5287 58.224C13.5287 57.936 13.6061 57.6773 13.7607 57.448C13.9207 57.2187 14.1421 57.04 14.4247 56.912C14.7074 56.784 15.0301 56.72 15.3927 56.72C15.7127 56.72 15.9981 56.76 16.2487 56.84C16.4994 56.9147 16.7021 57.016 16.8567 57.144C16.9581 57.224 17.0354 57.3067 17.0887 57.392C17.1421 57.4773 17.1687 57.56 17.1687 57.64C17.1687 57.7307 17.1394 57.8133 17.0807 57.888C17.0274 57.9573 16.9661 58.0133 16.8967 58.056C16.8274 58.0933 16.7901 58.1067 16.7847 58.096C16.6407 57.8933 16.4461 57.728 16.2007 57.6C15.9554 57.4667 15.6887 57.4 15.4007 57.4C15.0754 57.4 14.8141 57.472 14.6167 57.616C14.4247 57.76 14.3287 57.952 14.3287 58.192C14.3287 58.3733 14.3767 58.5147 14.4727 58.616C14.5687 58.712 14.6914 58.784 14.8407 58.832C14.9901 58.88 15.2274 58.9413 15.5527 59.016C16.0861 59.1387 16.5074 59.3147 16.8167 59.544C17.1261 59.768 17.2807 60.1067 17.2807 60.56C17.2807 61.0347 17.1074 61.4107 16.7607 61.688C16.4141 61.9653 15.9394 62.104 15.3367 62.104C14.9581 62.104 14.6247 62.056 14.3367 61.96C14.0541 61.8587 13.8274 61.728 13.6567 61.568ZM19.4553 62.104C18.6873 62.104 18.3033 61.68 18.3033 60.832V58.8H18.0233C17.9007 58.8 17.8127 58.776 17.7593 58.728C17.706 58.68 17.6793 58.6053 17.6793 58.504V58.448C17.6793 58.3467 17.706 58.272 17.7593 58.224C17.8127 58.176 17.9007 58.152 18.0233 58.152H18.3033V57.56C18.3033 57.3093 18.4207 57.184 18.6553 57.184H18.7353C18.8473 57.184 18.9327 57.2133 18.9913 57.272C19.05 57.3253 19.0793 57.4213 19.0793 57.56V58.152H19.9513C20.074 58.152 20.1593 58.176 20.2073 58.224C20.2607 58.2667 20.2873 58.3387 20.2873 58.44V58.496C20.2873 58.5973 20.2607 58.6747 20.2073 58.728C20.154 58.776 20.066 58.8 19.9433 58.8H19.0713V60.744C19.0713 60.9893 19.1087 61.1707 19.1833 61.288C19.2633 61.4 19.3967 61.456 19.5833 61.456C19.8127 61.456 19.994 61.3653 20.1273 61.184C20.138 61.1733 20.162 61.1813 20.1993 61.208C20.2367 61.2347 20.2713 61.2747 20.3033 61.328C20.3353 61.3813 20.3513 61.4453 20.3513 61.52C20.3513 61.648 20.2953 61.7653 20.1833 61.872C20.0127 62.0267 19.77 62.104 19.4553 62.104ZM20.7521 60.096C20.7521 59.712 20.8374 59.3653 21.0081 59.056C21.1788 58.7413 21.4134 58.496 21.7121 58.32C22.0108 58.144 22.3468 58.056 22.7201 58.056C23.0881 58.056 23.4108 58.1387 23.6881 58.304C23.9654 58.464 24.1814 58.6907 24.3361 58.984C24.4908 59.2773 24.5681 59.6133 24.5681 59.992V60.056C24.5681 60.1413 24.5494 60.2027 24.5121 60.24C24.4801 60.272 24.4188 60.288 24.3281 60.288H21.4881C21.4881 60.32 21.4934 60.368 21.5041 60.432C21.5628 60.7467 21.7068 61 21.9361 61.192C22.1708 61.384 22.4588 61.48 22.8001 61.48C23.1094 61.48 23.3601 61.424 23.5521 61.312C23.7441 61.1947 23.8961 61.0373 24.0081 60.84C24.0188 60.8293 24.0588 60.8373 24.1281 60.864C24.2028 60.8853 24.2694 60.928 24.3281 60.992C24.3921 61.0507 24.4241 61.1307 24.4241 61.232C24.4241 61.3173 24.3868 61.4107 24.3121 61.512C24.2374 61.6133 24.1334 61.7067 24.0001 61.792C23.6694 62 23.2641 62.104 22.7841 62.104C22.3841 62.104 22.0294 62.0213 21.7201 61.856C21.4161 61.6853 21.1788 61.448 21.0081 61.144C20.8374 60.84 20.7521 60.4907 20.7521 60.096ZM23.8001 59.752C23.7788 59.416 23.6721 59.1493 23.4801 58.952C23.2881 58.7547 23.0321 58.656 22.7121 58.656C22.3974 58.656 22.1281 58.76 21.9041 58.968C21.6801 59.1707 21.5441 59.432 21.4961 59.752H23.8001ZM27.4404 58.056C27.7817 58.056 28.0884 58.1387 28.3604 58.304C28.6377 58.4693 28.8537 58.7067 29.0084 59.016C29.1631 59.32 29.2404 59.672 29.2404 60.072C29.2404 60.4667 29.1631 60.8187 29.0084 61.128C28.8537 61.4373 28.6377 61.6773 28.3604 61.848C28.0831 62.0187 27.7684 62.104 27.4164 62.104C27.1124 62.104 26.8457 62.0373 26.6164 61.904C26.3871 61.7653 26.2137 61.592 26.0964 61.384V63.192C26.0964 63.4427 25.9791 63.568 25.7444 63.568H25.6564C25.4217 63.568 25.3044 63.4427 25.3044 63.192V58.2C25.3044 58.184 25.3337 58.1653 25.3924 58.144C25.4511 58.1227 25.5177 58.112 25.5924 58.112C25.8537 58.112 26.0111 58.2587 26.0644 58.552C26.0804 58.632 26.0884 58.7067 26.0884 58.776C26.4031 58.296 26.8537 58.056 27.4404 58.056ZM27.2724 61.448C27.6297 61.448 27.9177 61.3227 28.1364 61.072C28.3604 60.8213 28.4724 60.4907 28.4724 60.08C28.4724 59.8187 28.4217 59.584 28.3204 59.376C28.2191 59.168 28.0777 59.0053 27.8964 58.888C27.7204 58.7707 27.5177 58.712 27.2884 58.712C27.0004 58.712 26.7524 58.784 26.5444 58.928C26.3417 59.0667 26.1897 59.2613 26.0884 59.512V60.32C26.0884 60.5333 26.1417 60.7253 26.2484 60.896C26.3551 61.0667 26.4991 61.2027 26.6804 61.304C26.8617 61.4 27.0591 61.448 27.2724 61.448ZM33.3915 62.104C32.9488 62.104 32.5648 62.008 32.2395 61.816C31.9141 61.6187 31.6661 61.3387 31.4955 60.976C31.3248 60.608 31.2395 60.176 31.2395 59.68V59.152C31.2395 58.656 31.3248 58.2267 31.4955 57.864C31.6715 57.496 31.9221 57.2133 32.2475 57.016C32.5728 56.8187 32.9541 56.72 33.3915 56.72C33.8341 56.72 34.2181 56.8187 34.5435 57.016C34.8688 57.208 35.1168 57.488 35.2875 57.856C35.4635 58.2187 35.5515 58.648 35.5515 59.144V59.664C35.5515 60.16 35.4635 60.592 35.2875 60.96C35.1168 61.328 34.8688 61.6107 34.5435 61.808C34.2181 62.0053 33.8341 62.104 33.3915 62.104ZM33.3915 61.408C33.8181 61.408 34.1461 61.2613 34.3755 60.968C34.6101 60.6693 34.7275 60.248 34.7275 59.704V59.128C34.7275 58.584 34.6101 58.16 34.3755 57.856C34.1408 57.552 33.8128 57.4 33.3915 57.4C32.9701 57.4 32.6448 57.5493 32.4155 57.848C32.1861 58.1467 32.0715 58.568 32.0715 59.112V59.696C32.0715 60.24 32.1861 60.6613 32.4155 60.96C32.6501 61.2587 32.9755 61.408 33.3915 61.408ZM37.6216 62.04C37.3869 62.04 37.2696 61.9147 37.2696 61.664V57.952C37.1256 58.096 36.9469 58.168 36.7336 58.168C36.5523 58.168 36.3976 58.1173 36.2696 58.016C36.1523 57.9147 36.0936 57.7813 36.0936 57.616C36.0936 57.536 36.1096 57.464 36.1416 57.4C36.1736 57.336 36.2083 57.288 36.2456 57.256C36.2883 57.2187 36.3149 57.2027 36.3256 57.208C36.4589 57.3307 36.6163 57.392 36.7976 57.392C36.9683 57.392 37.1123 57.336 37.2296 57.224C37.3523 57.1067 37.4243 56.96 37.4456 56.784H37.7256C37.9656 56.784 38.0856 56.9093 38.0856 57.16V61.664C38.0856 61.9147 37.9656 62.04 37.7256 62.04H37.6216Z" fill="white"/>
<path d="M107.981 61.568C107.805 61.3973 107.717 61.232 107.717 61.072C107.717 60.992 107.744 60.9173 107.797 60.848C107.856 60.7733 107.917 60.7173 107.981 60.68C108.045 60.6373 108.082 60.6213 108.093 60.632C108.253 60.8613 108.469 61.0507 108.741 61.2C109.013 61.3493 109.317 61.424 109.653 61.424C110.01 61.424 110.288 61.3547 110.485 61.216C110.682 61.072 110.781 60.872 110.781 60.616C110.781 60.4347 110.725 60.2907 110.613 60.184C110.501 60.072 110.36 59.9867 110.189 59.928C110.024 59.8693 109.789 59.8053 109.485 59.736C109.16 59.6613 108.882 59.5733 108.653 59.472C108.424 59.3707 108.232 59.2187 108.077 59.016C107.928 58.8133 107.853 58.5493 107.853 58.224C107.853 57.936 107.93 57.6773 108.085 57.448C108.245 57.2187 108.466 57.04 108.749 56.912C109.032 56.784 109.354 56.72 109.717 56.72C110.037 56.72 110.322 56.76 110.573 56.84C110.824 56.9147 111.026 57.016 111.181 57.144C111.282 57.224 111.36 57.3067 111.413 57.392C111.466 57.4773 111.493 57.56 111.493 57.64C111.493 57.7307 111.464 57.8133 111.405 57.888C111.352 57.9573 111.29 58.0133 111.221 58.056C111.152 58.0933 111.114 58.1067 111.109 58.096C110.965 57.8933 110.77 57.728 110.525 57.6C110.28 57.4667 110.013 57.4 109.725 57.4C109.4 57.4 109.138 57.472 108.941 57.616C108.749 57.76 108.653 57.952 108.653 58.192C108.653 58.3733 108.701 58.5147 108.797 58.616C108.893 58.712 109.016 58.784 109.165 58.832C109.314 58.88 109.552 58.9413 109.877 59.016C110.41 59.1387 110.832 59.3147 111.141 59.544C111.45 59.768 111.605 60.1067 111.605 60.56C111.605 61.0347 111.432 61.4107 111.085 61.688C110.738 61.9653 110.264 62.104 109.661 62.104C109.282 62.104 108.949 62.056 108.661 61.96C108.378 61.8587 108.152 61.728 107.981 61.568ZM113.78 62.104C113.012 62.104 112.628 61.68 112.628 60.832V58.8H112.348C112.225 58.8 112.137 58.776 112.084 58.728C112.03 58.68 112.004 58.6053 112.004 58.504V58.448C112.004 58.3467 112.03 58.272 112.084 58.224C112.137 58.176 112.225 58.152 112.348 58.152H112.628V57.56C112.628 57.3093 112.745 57.184 112.98 57.184H113.06C113.172 57.184 113.257 57.2133 113.316 57.272C113.374 57.3253 113.404 57.4213 113.404 57.56V58.152H114.276C114.398 58.152 114.484 58.176 114.532 58.224C114.585 58.2667 114.612 58.3387 114.612 58.44V58.496C114.612 58.5973 114.585 58.6747 114.532 58.728C114.478 58.776 114.39 58.8 114.268 58.8H113.396V60.744C113.396 60.9893 113.433 61.1707 113.508 61.288C113.588 61.4 113.721 61.456 113.908 61.456C114.137 61.456 114.318 61.3653 114.452 61.184C114.462 61.1733 114.486 61.1813 114.524 61.208C114.561 61.2347 114.596 61.2747 114.628 61.328C114.66 61.3813 114.676 61.4453 114.676 61.52C114.676 61.648 114.62 61.7653 114.508 61.872C114.337 62.0267 114.094 62.104 113.78 62.104ZM115.076 60.096C115.076 59.712 115.162 59.3653 115.332 59.056C115.503 58.7413 115.738 58.496 116.036 58.32C116.335 58.144 116.671 58.056 117.044 58.056C117.412 58.056 117.735 58.1387 118.012 58.304C118.29 58.464 118.506 58.6907 118.66 58.984C118.815 59.2773 118.892 59.6133 118.892 59.992V60.056C118.892 60.1413 118.874 60.2027 118.836 60.24C118.804 60.272 118.743 60.288 118.652 60.288H115.812C115.812 60.32 115.818 60.368 115.828 60.432C115.887 60.7467 116.031 61 116.26 61.192C116.495 61.384 116.783 61.48 117.124 61.48C117.434 61.48 117.684 61.424 117.876 61.312C118.068 61.1947 118.22 61.0373 118.332 60.84C118.343 60.8293 118.383 60.8373 118.452 60.864C118.527 60.8853 118.594 60.928 118.652 60.992C118.716 61.0507 118.748 61.1307 118.748 61.232C118.748 61.3173 118.711 61.4107 118.636 61.512C118.562 61.6133 118.458 61.7067 118.324 61.792C117.994 62 117.588 62.104 117.108 62.104C116.708 62.104 116.354 62.0213 116.044 61.856C115.74 61.6853 115.503 61.448 115.332 61.144C115.162 60.84 115.076 60.4907 115.076 60.096ZM118.124 59.752C118.103 59.416 117.996 59.1493 117.804 58.952C117.612 58.7547 117.356 58.656 117.036 58.656C116.722 58.656 116.452 58.76 116.228 58.968C116.004 59.1707 115.868 59.432 115.82 59.752H118.124ZM121.765 58.056C122.106 58.056 122.413 58.1387 122.685 58.304C122.962 58.4693 123.178 58.7067 123.333 59.016C123.487 59.32 123.565 59.672 123.565 60.072C123.565 60.4667 123.487 60.8187 123.333 61.128C123.178 61.4373 122.962 61.6773 122.685 61.848C122.407 62.0187 122.093 62.104 121.741 62.104C121.437 62.104 121.17 62.0373 120.941 61.904C120.711 61.7653 120.538 61.592 120.421 61.384V63.192C120.421 63.4427 120.303 63.568 120.069 63.568H119.981C119.746 63.568 119.629 63.4427 119.629 63.192V58.2C119.629 58.184 119.658 58.1653 119.717 58.144C119.775 58.1227 119.842 58.112 119.917 58.112C120.178 58.112 120.335 58.2587 120.389 58.552C120.405 58.632 120.413 58.7067 120.413 58.776C120.727 58.296 121.178 58.056 121.765 58.056ZM121.597 61.448C121.954 61.448 122.242 61.3227 122.461 61.072C122.685 60.8213 122.797 60.4907 122.797 60.08C122.797 59.8187 122.746 59.584 122.645 59.376C122.543 59.168 122.402 59.0053 122.221 58.888C122.045 58.7707 121.842 58.712 121.613 58.712C121.325 58.712 121.077 58.784 120.869 58.928C120.666 59.0667 120.514 59.2613 120.413 59.512V60.32C120.413 60.5333 120.466 60.7253 120.573 60.896C120.679 61.0667 120.823 61.2027 121.005 61.304C121.186 61.4 121.383 61.448 121.597 61.448ZM127.716 62.104C127.273 62.104 126.889 62.008 126.564 61.816C126.238 61.6187 125.99 61.3387 125.82 60.976C125.649 60.608 125.564 60.176 125.564 59.68V59.152C125.564 58.656 125.649 58.2267 125.82 57.864C125.996 57.496 126.246 57.2133 126.572 57.016C126.897 56.8187 127.278 56.72 127.716 56.72C128.158 56.72 128.542 56.8187 128.868 57.016C129.193 57.208 129.441 57.488 129.612 57.856C129.788 58.2187 129.876 58.648 129.876 59.144V59.664C129.876 60.16 129.788 60.592 129.612 60.96C129.441 61.328 129.193 61.6107 128.868 61.808C128.542 62.0053 128.158 62.104 127.716 62.104ZM127.716 61.408C128.142 61.408 128.47 61.2613 128.7 60.968C128.934 60.6693 129.052 60.248 129.052 59.704V59.128C129.052 58.584 128.934 58.16 128.7 57.856C128.465 57.552 128.137 57.4 127.716 57.4C127.294 57.4 126.969 57.5493 126.74 57.848C126.51 58.1467 126.396 58.568 126.396 59.112V59.696C126.396 60.24 126.51 60.6613 126.74 60.96C126.974 61.2587 127.3 61.408 127.716 61.408ZM131.074 62C130.892 62 130.762 61.9653 130.682 61.896C130.602 61.8267 130.562 61.712 130.562 61.552V61.352C130.562 61.0213 130.636 60.7387 130.786 60.504C130.935 60.264 131.119 60.0667 131.338 59.912C131.562 59.752 131.836 59.592 132.162 59.432C132.21 59.4107 132.37 59.3333 132.642 59.2C132.919 59.0613 133.122 58.9173 133.25 58.768C133.383 58.6187 133.45 58.456 133.45 58.28C133.45 58.0133 133.356 57.8053 133.17 57.656C132.983 57.5013 132.724 57.424 132.394 57.424C132.042 57.424 131.762 57.5173 131.554 57.704C131.351 57.8853 131.21 58.1227 131.13 58.416C131.13 58.432 131.079 58.4347 130.978 58.424C130.882 58.408 130.791 58.368 130.706 58.304C130.626 58.24 130.586 58.144 130.586 58.016C130.586 57.8773 130.626 57.7333 130.706 57.584C130.786 57.4293 130.903 57.2907 131.058 57.168C131.223 57.0293 131.423 56.92 131.658 56.84C131.898 56.76 132.162 56.72 132.45 56.72C133.015 56.72 133.458 56.8587 133.778 57.136C134.098 57.408 134.258 57.784 134.258 58.264C134.258 58.552 134.188 58.7973 134.05 59C133.916 59.2027 133.746 59.368 133.538 59.496C133.335 59.624 133.068 59.7653 132.738 59.92C132.327 60.1067 132.01 60.2827 131.786 60.448C131.567 60.608 131.426 60.8133 131.362 61.064C131.34 61.16 131.33 61.2373 131.33 61.296H133.954C134.215 61.296 134.346 61.4027 134.346 61.616V61.664C134.346 61.888 134.215 62 133.954 62H131.074Z" fill="white"/>
</g>
<g filter="url(#filter2_d_0_1)">
<circle cx="121.499" cy="24.4999" r="7.64149" fill="#FFA76B"/>
</g>
<g filter="url(#filter3_d_0_1)">
<circle cx="26.6415" cy="24.6415" r="7.64149" fill="#FFA76B"/>
</g>
<defs>
<filter id="filter0_d_0_1" x="0" y="0" width="148" height="53" filterUnits="userSpaceOnUse" color-interpolation-filters="sRGB">
<feFlood flood-opacity="0" result="BackgroundImageFix"/>
<feColorMatrix in="SourceAlpha" type="matrix" values="0 0 0 0 0 0 0 0 0 0 0 0 0 0 0 0 0 0 127 0" result="hardAlpha"/>
<feOffset dy="2"/>
<feGaussianBlur stdDeviation="2"/>
<feColorMatrix type="matrix" values="0 0 0 0 0 0 0 0 0 0 0 0 0 0 0 0 0 0 0.2 0"/>
<feBlend mode="normal" in2="BackgroundImageFix" result="effect1_dropShadow_0_1"/>
<feBlend mode="normal" in="SourceGraphic" in2="effect1_dropShadow_0_1" result="shape"/>
</filter>
<filter id="filter1_d_0_1" x="9.39282" y="54.7197" width="128.953" height="14.8486" filterUnits="userSpaceOnUse" color-interpolation-filters="sRGB">
<feFlood flood-opacity="0" result="BackgroundImageFix"/>
<feColorMatrix in="SourceAlpha" type="matrix" values="0 0 0 0 0 0 0 0 0 0 0 0 0 0 0 0 0 0 127 0" result="hardAlpha"/>
<feOffset dy="2"/>
<feGaussianBlur stdDeviation="2"/>
<feColorMatrix type="matrix" values="0 0 0 0 0 0 0 0 0 0 0 0 0 0 0 0 0 0 0.2 0"/>
<feBlend mode="normal" in2="BackgroundImageFix" result="effect1_dropShadow_0_1"/>
<feBlend mode="normal" in="SourceGraphic" in2="effect1_dropShadow_0_1" result="shape"/>
</filter>
<filter id="filter2_d_0_1" x="109.857" y="14.8584" width="23.283" height="23.2832" filterUnits="userSpaceOnUse" color-interpolation-filters="sRGB">
<feFlood flood-opacity="0" result="BackgroundImageFix"/>
<feColorMatrix in="SourceAlpha" type="matrix" values="0 0 0 0 0 0 0 0 0 0 0 0 0 0 0 0 0 0 127 0" result="hardAlpha"/>
<feOffset dy="2"/>
<feGaussianBlur stdDeviation="2"/>
<feComposite in2="hardAlpha" operator="out"/>
<feColorMatrix type="matrix" values="0 0 0 0 0 0 0 0 0 0 0 0 0 0 0 0 0 0 0.15 0"/>
<feBlend mode="normal" in2="BackgroundImageFix" result="effect1_dropShadow_0_1"/>
<feBlend mode="normal" in="SourceGraphic" in2="effect1_dropShadow_0_1" result="shape"/>
</filter>
<filter id="filter3_d_0_1" x="15" y="15" width="23.283" height="23.2832" filterUnits="userSpaceOnUse" color-interpolation-filters="sRGB">
<feFlood flood-opacity="0" result="BackgroundImageFix"/>
<feColorMatrix in="SourceAlpha" type="matrix" values="0 0 0 0 0 0 0 0 0 0 0 0 0 0 0 0 0 0 127 0" result="hardAlpha"/>
<feOffset dy="2"/>
<feGaussianBlur stdDeviation="2"/>
<feComposite in2="hardAlpha" operator="out"/>
<feColorMatrix type="matrix" values="0 0 0 0 0 0 0 0 0 0 0 0 0 0 0 0 0 0 0.15 0"/>
<feBlend mode="normal" in2="BackgroundImageFix" result="effect1_dropShadow_0_1"/>
<feBlend mode="normal" in="SourceGraphic" in2="effect1_dropShadow_0_1" result="shape"/>
</filter>
</defs>
</svg>
