<svg width="36" height="39" viewBox="0 0 36 39" fill="none" xmlns="http://www.w3.org/2000/svg">
<g filter="url(#filter0_d_607_50)">
<path d="M4.66675 18.9997C4.66675 19.4417 4.84234 19.8656 5.1549 20.1782C5.46746 20.4907 5.89139 20.6663 6.33341 20.6663H18.9834L15.1501 24.483C14.9939 24.6379 14.8699 24.8223 14.7853 25.0254C14.7006 25.2285 14.6571 25.4463 14.6571 25.6663C14.6571 25.8864 14.7006 26.1042 14.7853 26.3073C14.8699 26.5104 14.9939 26.6947 15.1501 26.8497C15.305 27.0059 15.4894 27.1299 15.6925 27.2145C15.8956 27.2991 16.1134 27.3427 16.3334 27.3427C16.5534 27.3427 16.7713 27.2991 16.9744 27.2145C17.1775 27.1299 17.3618 27.0059 17.5167 26.8497L24.1834 20.183C24.3351 20.0245 24.4541 19.8376 24.5334 19.633C24.7001 19.2272 24.7001 18.7721 24.5334 18.3663C24.4541 18.1618 24.3351 17.9748 24.1834 17.8163L17.5167 11.1497C17.3614 10.9943 17.1769 10.871 16.9738 10.7869C16.7708 10.7028 16.5532 10.6595 16.3334 10.6595C16.1136 10.6595 15.896 10.7028 15.693 10.7869C15.49 10.871 15.3055 10.9943 15.1501 11.1497C14.9947 11.3051 14.8714 11.4896 14.7873 11.6926C14.7032 11.8956 14.6599 12.1132 14.6599 12.333C14.6599 12.5528 14.7032 12.7704 14.7873 12.9734C14.8714 13.1765 14.9947 13.3609 15.1501 13.5163L18.9834 17.333H6.33341C5.89139 17.333 5.46746 17.5086 5.1549 17.8212C4.84234 18.1337 4.66675 18.5576 4.66675 18.9997V18.9997ZM26.3334 2.33301H9.66675C8.34067 2.33301 7.0689 2.85979 6.13121 3.79747C5.19353 4.73516 4.66675 6.00693 4.66675 7.33301V12.333C4.66675 12.775 4.84234 13.199 5.1549 13.5115C5.46746 13.8241 5.89139 13.9997 6.33341 13.9997C6.77544 13.9997 7.19937 13.8241 7.51193 13.5115C7.82449 13.199 8.00008 12.775 8.00008 12.333V7.33301C8.00008 6.89098 8.17568 6.46706 8.48824 6.1545C8.8008 5.84194 9.22472 5.66634 9.66675 5.66634H26.3334C26.7754 5.66634 27.1994 5.84194 27.5119 6.1545C27.8245 6.46706 28.0001 6.89098 28.0001 7.33301V30.6663C28.0001 31.1084 27.8245 31.5323 27.5119 31.8449C27.1994 32.1574 26.7754 32.333 26.3334 32.333H9.66675C9.22472 32.333 8.8008 32.1574 8.48824 31.8449C8.17568 31.5323 8.00008 31.1084 8.00008 30.6663V25.6663C8.00008 25.2243 7.82449 24.8004 7.51193 24.4878C7.19937 24.1753 6.77544 23.9997 6.33341 23.9997C5.89139 23.9997 5.46746 24.1753 5.1549 24.4878C4.84234 24.8004 4.66675 25.2243 4.66675 25.6663V30.6663C4.66675 31.9924 5.19353 33.2642 6.13121 34.2019C7.0689 35.1396 8.34067 35.6663 9.66675 35.6663H26.3334C27.6595 35.6663 28.9313 35.1396 29.8689 34.2019C30.8066 33.2642 31.3334 31.9924 31.3334 30.6663V7.33301C31.3334 6.00693 30.8066 4.73516 29.8689 3.79747C28.9313 2.85979 27.6595 2.33301 26.3334 2.33301Z" fill="white"/>
</g>
<defs>
<filter id="filter0_d_607_50" x="0.666748" y="0.333008" width="34.6667" height="41.333" filterUnits="userSpaceOnUse" color-interpolation-filters="sRGB">
<feFlood flood-opacity="0" result="BackgroundImageFix"/>
<feColorMatrix in="SourceAlpha" type="matrix" values="0 0 0 0 0 0 0 0 0 0 0 0 0 0 0 0 0 0 127 0" result="hardAlpha"/>
<feOffset dy="2"/>
<feGaussianBlur stdDeviation="2"/>
<feComposite in2="hardAlpha" operator="out"/>
<feColorMatrix type="matrix" values="0 0 0 0 0 0 0 0 0 0 0 0 0 0 0 0 0 0 0.15 0"/>
<feBlend mode="normal" in2="BackgroundImageFix" result="effect1_dropShadow_607_50"/>
<feBlend mode="normal" in="SourceGraphic" in2="effect1_dropShadow_607_50" result="shape"/>
</filter>
</defs>
</svg>
